<svg width="141" height="135" viewBox="0 0 141 135" fill="none" xmlns="http://www.w3.org/2000/svg">
<path d="M26.0626 34.3775C23.0642 35.533 24.05 40.0068 27.1941 39.5123L115.412 25.6368C116.862 25.4088 117.907 24.0413 117.747 22.5825L115.627 3.27778C115.442 1.59283 113.758 0.581871 112.161 1.19729L26.0626 34.3775Z" fill="#1E3A8A"/>
<path d="M34.6336 35.1315C31.5277 35.8129 32.0232 40.3844 35.203 40.3844H124.434C125.902 40.3844 127.092 39.1947 127.092 37.7271V18.1508C127.092 16.4537 125.523 15.1915 123.865 15.5552L34.6336 35.1315Z" fill="#172554"/>
<rect x="14.2534" y="33.8516" width="121.747" height="93.2402" rx="9.50218" fill="#2563EB"/>
<path d="M27.3188 33.8517H122.935V46.3233C122.935 49.6032 120.276 52.2622 116.996 52.2622H33.2577C29.9778 52.2622 27.3188 49.6032 27.3188 46.3233V33.8517Z" fill="white"/>
<rect x="58.7949" y="39.7905" width="32.6638" height="6.53275" rx="2.96943" fill="#172554"/>
<path d="M108.833 105.624H112.418C112.418 107.56 114.874 109.209 117.795 109.209C120.717 109.209 123.173 107.56 123.173 105.624C123.173 103.653 121.309 102.936 117.365 101.986C113.565 101.036 108.833 99.8529 108.833 94.8701C108.833 91.6617 111.468 88.9372 115.107 88.0231V84.1157H120.484V88.0231C124.123 88.9372 126.757 91.6617 126.757 94.8701H123.173C123.173 92.9343 120.717 91.2853 117.795 91.2853C114.874 91.2853 112.418 92.9343 112.418 94.8701C112.418 96.8417 114.282 97.5586 118.226 98.5086C122.026 99.4586 126.757 100.642 126.757 105.624C126.757 108.833 124.123 111.557 120.484 112.471V116.379H115.107V112.471C111.468 111.557 108.833 108.833 108.833 105.624Z" fill="white"/>
</svg>
