<svg width="184" height="184" viewBox="0 0 184 184" fill="none" xmlns="http://www.w3.org/2000/svg">
<rect width="184" height="184" rx="30" fill="white"/>
<path d="M44.0626 57.3776C41.0642 58.5331 42.05 63.0069 45.1941 62.5124L133.412 48.6369C134.862 48.4089 135.907 47.0414 135.747 45.5826L133.627 26.2778C133.442 24.5929 131.758 23.5819 130.161 24.1974L44.0626 57.3776Z" fill="#1E3A8A" stroke="white" stroke-width="1.78166"/>
<path d="M52.6336 58.1313C49.5277 58.8127 50.0232 63.3843 53.203 63.3843H142.434C143.902 63.3843 145.092 62.1946 145.092 60.7269V41.1507C145.092 39.4536 143.523 38.1914 141.865 38.5551L52.6336 58.1313Z" fill="#172554" stroke="white" stroke-width="1.78166"/>
<rect x="31.6595" y="56.2577" width="122.935" height="94.4279" rx="10.0961" fill="#2563EB" stroke="white" stroke-width="1.18777"/>
<path d="M141.529 56.2578V69.3232C141.529 72.9312 138.604 75.8555 134.996 75.8555H51.2573C47.6496 75.8553 44.7251 72.931 44.7251 69.3232V56.2578H141.529Z" fill="#60A5FA" stroke="white" stroke-width="1.18777"/>
<rect x="76.201" y="62.1966" width="33.8515" height="7.72052" rx="3.56332" fill="#172554" stroke="white" stroke-width="1.18777"/>
<path d="M134.892 138.904H136.19C136.19 139.605 137.079 140.202 138.137 140.202C139.195 140.202 140.084 139.605 140.084 138.904C140.084 138.19 139.409 137.93 137.981 137.586C136.605 137.242 134.892 136.814 134.892 135.01C134.892 133.848 135.846 132.861 137.163 132.53V131.115H139.111V132.53C140.428 132.861 141.382 133.848 141.382 135.01H140.084C140.084 134.309 139.195 133.711 138.137 133.711C137.079 133.711 136.19 134.309 136.19 135.01C136.19 135.724 136.865 135.983 138.293 136.327C139.669 136.671 141.382 137.1 141.382 138.904C141.382 140.066 140.428 141.053 139.111 141.384V142.799H137.163V141.384C135.846 141.053 134.892 140.066 134.892 138.904Z" fill="white"/>
<path d="M146.279 132.661L142.866 131.851L145.274 129.3L146.279 132.661ZM130.468 132.867C130.355 132.99 130.162 132.999 130.039 132.885C129.915 132.771 129.907 132.579 130.021 132.456L130.468 132.867ZM145.698 132.112L145.906 131.891L145.698 132.112ZM145.698 132.112L145.489 132.333C141.209 128.292 134.451 128.532 130.468 132.867L130.244 132.661L130.021 132.456C134.233 127.872 141.38 127.618 145.906 131.891L145.698 132.112Z" fill="white"/>
<path d="M130.244 141.391L133.658 142.202L131.249 144.753L130.244 141.391ZM146.055 141.186C146.169 141.062 146.361 141.054 146.485 141.168C146.608 141.281 146.616 141.473 146.503 141.597L146.055 141.186ZM130.826 141.94L130.617 142.161L130.826 141.94ZM130.826 141.94L131.034 141.719C135.314 145.76 142.073 145.52 146.055 141.186L146.279 141.391L146.503 141.597C142.291 146.181 135.144 146.435 130.617 142.161L130.826 141.94Z" fill="white"/>
</svg>
