<svg width="30" height="31" viewBox="0 0 30 31" fill="none" xmlns="http://www.w3.org/2000/svg">
<path d="M26.5963 20.2092C25.8202 22.0446 24.6062 23.662 23.0607 24.9199C21.5151 26.1778 19.6849 27.0379 17.7301 27.425C15.7753 27.8122 13.7554 27.7146 11.847 27.1408C9.93865 26.567 8.19989 25.5344 6.78277 24.1334C5.36564 22.7324 4.31329 21.0055 3.71773 19.1038C3.12217 17.2021 3.00152 15.1835 3.36633 13.2244C3.73115 11.2653 4.57032 9.42541 5.81048 7.86556C7.05064 6.3057 8.65403 5.0734 10.4805 4.27637" stroke="black" stroke-width="2.43994" stroke-linecap="round" stroke-linejoin="round"/>
<path d="M27.5601 15.4634C27.5601 13.8613 27.2445 12.2749 26.6314 10.7948C26.0183 9.31462 25.1197 7.96973 23.9868 6.83688C22.854 5.70404 21.5091 4.80541 20.029 4.19232C18.5488 3.57923 16.9624 3.26367 15.3604 3.26367V15.4634H27.5601Z" stroke="black" stroke-width="2.43994" stroke-linecap="round" stroke-linejoin="round"/>
</svg>
