<svg width="32" height="32" viewBox="0 0 32 32" fill="none" xmlns="http://www.w3.org/2000/svg">
<path d="M29.5343 16.4639H1.5343M22.5343 2.46387H26.0343C26.9626 2.46387 27.8528 2.83262 28.5092 3.48899C29.1656 4.14537 29.5343 5.03561 29.5343 5.96387V9.46387M8.5343 30.4639H5.0343C4.10604 30.4639 3.21581 30.0951 2.55943 29.4387C1.90305 28.7824 1.5343 27.8921 1.5343 26.9639V23.4639M29.5343 23.4639V26.9639C29.5343 27.8921 29.1656 28.7824 28.5092 29.4387C27.8528 30.0951 26.9626 30.4639 26.0343 30.4639H22.5343M1.5343 9.46387V5.96387C1.5343 5.03561 1.90305 4.14537 2.55943 3.48899C3.21581 2.83262 4.10604 2.46387 5.0343 2.46387H8.5343" stroke="black" stroke-width="3" stroke-linecap="round" stroke-linejoin="round"/>
</svg>
